<svg width="250" height="250" viewBox="0 0 250 250" fill="none" xmlns="http://www.w3.org/2000/svg">
<g id="github 1" clip-path="url(#clip0_1_6)">
<g id="Icons">
<g id="Color-">
<path id="Github" fill-rule="evenodd" clip-rule="evenodd" d="M124.992 2.60416C55.9686 2.60416 7.62939e-06 58.7868 7.62939e-06 128.107C7.62939e-06 183.545 35.8125 230.583 85.4921 247.179C91.7421 248.332 94.0234 244.457 94.0234 241.132C94.0234 238.151 93.9139 230.261 93.8514 219.79C59.078 227.374 51.7422 202.966 51.7422 202.966C46.0626 188.471 37.8672 184.612 37.8672 184.612C26.5157 176.823 38.7265 176.98 38.7265 176.98C51.2656 177.866 57.8671 189.914 57.8671 189.914C69.0233 209.091 87.1251 203.554 94.2501 200.338C95.3829 192.228 98.6172 186.698 102.187 183.561C74.4297 180.392 45.2499 169.631 45.2499 121.543C45.2499 107.84 50.1172 96.6395 58.1172 87.8626C56.8282 84.686 52.5392 71.9326 59.336 54.6535C59.336 54.6535 69.8359 51.2807 93.7109 67.5166C103.687 64.7322 114.375 63.3439 125.008 63.289C135.625 63.3439 146.32 64.7322 156.305 67.5166C180.164 51.2807 190.641 54.6535 190.641 54.6535C197.461 71.9326 193.172 84.686 191.883 87.8626C199.898 96.6395 204.734 107.84 204.734 121.543C204.734 169.749 175.508 180.361 147.664 183.467C152.148 187.341 156.149 194.997 156.149 206.707C156.149 223.484 155.992 237.014 155.992 241.132C155.992 244.489 158.242 248.395 164.586 247.163C214.219 230.535 250 183.529 250 128.107C250 58.7868 194.031 2.60416 124.992 2.60416Z" fill="#3E75C3"/>
</g>
</g>
</g>
<defs>
<clipPath id="clip0_1_6">
<rect width="250" height="250" fill="white"/>
</clipPath>
</defs>
</svg>
