<svg width="250" height="250" viewBox="0 0 250 250" fill="none" xmlns="http://www.w3.org/2000/svg">
<g id="linkedin-1-svgrepo-com 1">
<path id="Vector" d="M234.375 125C234.375 64.5939 185.406 15.625 125 15.625C64.5939 15.625 15.625 64.5939 15.625 125C15.625 185.406 64.5939 234.375 125 234.375C185.406 234.375 234.375 185.406 234.375 125Z" fill="#1275B1"/>
<path id="Vector_2" d="M98.5828 75.7199C98.5828 83.0211 92.2539 88.9398 84.4477 88.9398C76.6409 88.9398 70.3125 83.0211 70.3125 75.7199C70.3125 68.4188 76.6409 62.5 84.4477 62.5C92.2539 62.5 98.5828 68.4188 98.5828 75.7199Z" fill="white"/>
<path id="Vector_3" d="M72.2455 98.657H96.4078V171.875H72.2455V98.657Z" fill="white"/>
<path id="Vector_4" d="M135.309 98.657H111.147V171.875H135.309C135.309 171.875 135.309 148.825 135.309 134.413C135.309 125.763 138.263 117.074 150.048 117.074C163.367 117.074 163.287 128.395 163.225 137.165C163.144 148.628 163.338 160.327 163.338 171.875H187.5V133.232C187.295 108.558 180.866 97.1883 159.713 97.1883C147.152 97.1883 139.365 102.891 135.309 108.051V98.657Z" fill="white"/>
</g>
</svg>
