<svg width="250" height="250" viewBox="0 0 250 250" fill="none" xmlns="http://www.w3.org/2000/svg">
<g id="whatsapp-color-svgrepo-com 1">
<g id="Icons">
<g id="Color-">
<path id="Whatsapp" fill-rule="evenodd" clip-rule="evenodd" d="M124.964 0C56.0534 0 0 56.0691 0 124.999C0 152.336 8.81585 177.688 23.8021 198.265L8.22703 244.707L56.2731 229.352C76.0344 242.432 99.6168 250 125.036 250C193.947 250 250 193.929 250 125.001C250 56.0714 193.947 0.00206629 125.036 0.00206629L124.964 0ZM90.0669 63.4939C87.6432 57.6889 85.8062 57.4691 82.1342 57.3198C80.884 57.2472 79.4907 57.1747 77.946 57.1747C73.169 57.1747 68.1743 58.5704 65.1617 61.6565C61.4898 65.4041 52.3793 74.1478 52.3793 92.0792C52.3793 110.011 65.4561 127.353 67.2185 129.779C69.0555 132.202 92.7124 169.533 129.444 184.747C158.169 196.652 166.692 195.548 173.23 194.153C182.779 192.095 194.755 185.038 197.768 176.516C200.78 167.99 200.78 160.714 199.897 159.171C199.016 157.628 196.59 156.749 192.918 154.909C189.246 153.072 171.393 144.253 168.013 143.078C164.706 141.829 161.548 142.271 159.052 145.799C155.525 150.722 152.073 155.72 149.28 158.732C147.076 161.084 143.475 161.378 140.464 160.127C136.423 158.439 125.111 154.468 111.151 142.049C100.351 132.424 93.005 120.447 90.8756 116.846C88.7442 113.173 90.6556 111.039 92.3433 109.056C94.1803 106.777 95.9429 105.162 97.7799 103.03C99.6169 100.9 100.645 99.7963 101.821 97.2972C103.071 94.8728 102.188 92.3736 101.307 90.5361C100.425 88.6986 93.0795 70.7672 90.0669 63.4939Z" fill="#67C15E"/>
</g>
</g>
</g>
</svg>
